<svg width="18" height="18" viewBox="0 0 18 18" fill="none" xmlns="http://www.w3.org/2000/svg">
<g clip-path="url(#clip0_101_14122)">
<path d="M17.5375 9.16999C17.5375 4.42528 13.7148 0.579132 8.99999 0.579132C4.28302 0.580199 0.460358 4.42528 0.460358 9.17106C0.460358 13.458 3.58295 17.0117 7.66387 17.6563V11.6533H5.49748V9.17106H7.66601V7.2768C7.66601 5.12428 8.9413 3.93544 10.891 3.93544C11.8259 3.93544 12.8024 4.10299 12.8024 4.10299V6.21602H11.7256C10.6659 6.21602 10.335 6.87874 10.335 7.55854V9.16999H12.7021L12.3243 11.6523H10.334V17.6552C14.4149 17.0106 17.5375 13.4569 17.5375 9.16999Z" fill="#059BE5"/>
</g>
<defs>
<clipPath id="clip0_101_14122">
<rect x="0.462494" y="0.5802" width="17.075" height="17.075" rx="8.5375" fill="white"/>
</clipPath>
</defs>
</svg>
