<svg width="18" height="18" viewBox="0 0 18 18" fill="none" xmlns="http://www.w3.org/2000/svg">
<g clip-path="url(#clip0_101_14105)">
<path fill-rule="evenodd" clip-rule="evenodd" d="M8.99999 0.5802C4.28303 0.5802 0.462494 4.40073 0.462494 9.1177C0.462494 12.8955 2.90635 16.0864 6.30001 17.2177C6.72688 17.2924 6.88696 17.0362 6.88696 16.8121C6.88696 16.6094 6.87629 15.937 6.87629 15.222C4.73124 15.6169 4.17631 14.6991 4.00556 14.2189C3.90951 13.9734 3.49331 13.2157 3.13046 13.0129C2.83165 12.8529 2.40478 12.458 3.11979 12.4473C3.79212 12.4367 4.27235 13.0663 4.43243 13.3224C5.20081 14.6137 6.42807 14.2509 6.91898 14.0268C6.99368 13.4718 7.21779 13.0983 7.46324 12.8849C5.56365 12.6714 3.57868 11.9351 3.57868 8.66948C3.57868 7.74103 3.90951 6.97265 4.45378 6.37503C4.3684 6.16159 4.06959 5.2865 4.53915 4.11259C4.53915 4.11259 5.25417 3.88848 6.88696 4.98768C7.56996 4.79559 8.29565 4.69954 9.02134 4.69954C9.74703 4.69954 10.4727 4.79559 11.1557 4.98768C12.7885 3.87781 13.5035 4.11259 13.5035 4.11259C13.9731 5.2865 13.6743 6.16159 13.5889 6.37503C14.1332 6.97265 14.464 7.73036 14.464 8.66948C14.464 11.9457 12.4684 12.6714 10.5688 12.8849C10.8782 13.1517 11.145 13.6639 11.145 14.4643C11.145 15.6062 11.1344 16.524 11.1344 16.8121C11.1344 17.0362 11.2944 17.303 11.7213 17.2177C13.4161 16.6454 14.8889 15.5562 15.9322 14.1031C16.9755 12.6501 17.537 10.9065 17.5375 9.1177C17.5375 4.40073 13.717 0.5802 8.99999 0.5802Z" fill="black"/>
</g>
<defs>
<clipPath id="clip0_101_14105">
<rect x="0.462494" y="0.5802" width="17.075" height="17.075" rx="8.5375" fill="white"/>
</clipPath>
</defs>
</svg>
