<svg width="18" height="18" viewBox="0 0 18 18" fill="none" xmlns="http://www.w3.org/2000/svg">
<g clip-path="url(#clip0_101_14097)">
<path d="M17.3711 7.44551H16.6835V7.41008H8.99985V10.825H13.8247C13.1208 12.8129 11.2294 14.24 8.99985 14.24C6.17099 14.24 3.87743 11.9464 3.87743 9.11755C3.87743 6.2887 6.17099 3.99514 8.99985 3.99514C10.3056 3.99514 11.4936 4.48775 12.3981 5.29239L14.8129 2.8776C13.2882 1.45656 11.2486 0.5802 8.99985 0.5802C4.28509 0.5802 0.462494 4.4028 0.462494 9.11755C0.462494 13.8323 4.28509 17.6549 8.99985 17.6549C13.7146 17.6549 17.5372 13.8323 17.5372 9.11755C17.5372 8.54512 17.4783 7.98635 17.3711 7.44551Z" fill="#FFC107"/>
<path d="M1.44627 5.14384L4.25122 7.20092C5.01019 5.32185 6.84828 3.99514 8.99927 3.99514C10.3051 3.99514 11.493 4.48775 12.3976 5.29239L14.8124 2.8776C13.2876 1.45656 11.248 0.5802 8.99927 0.5802C5.72007 0.5802 2.87628 2.43152 1.44627 5.14384Z" fill="#FF3D00"/>
<path d="M8.99998 17.6552C11.2052 17.6552 13.2089 16.8113 14.7238 15.4389L12.0815 13.203C11.1956 13.8767 10.113 14.2411 8.99998 14.2402C6.77941 14.2402 4.89394 12.8243 4.18363 10.8484L1.3996 12.9934C2.81253 15.7582 5.68193 17.6552 8.99998 17.6552Z" fill="#4CAF50"/>
<path d="M17.3711 7.44553H16.6835V7.4101H8.99983V10.825H13.8247C13.488 11.7712 12.8815 12.5979 12.0801 13.2031L12.0814 13.2023L14.7237 15.4382C14.5367 15.6081 17.5372 13.3862 17.5372 9.11757C17.5372 8.54514 17.4783 7.98637 17.3711 7.44553Z" fill="#1976D2"/>
</g>
<defs>
<clipPath id="clip0_101_14097">
<rect x="0.462494" y="0.5802" width="17.075" height="17.075" rx="8.5375" fill="white"/>
</clipPath>
</defs>
</svg>
